<?xml version="1.0" encoding="utf-8"?>
<!-- Generator: Adobe Illustrator 24.0.0, SVG Export Plug-In . SVG Version: 6.00 Build 0)  -->
<svg version="1.1" id="Layer_1" xmlns="http://www.w3.org/2000/svg" xmlns:xlink="http://www.w3.org/1999/xlink" x="0px" y="0px"
	 viewBox="0 0 256 256" style="enable-background:new 0 0 256 256;" xml:space="preserve">
<style type="text/css">
	.st0{fill:#FFB69F;}
	.st1{fill:#72C2E9;}
	.st2{fill:#C2E5FF;}
	.st3{fill:#FC5D3D;}
	.st4{fill:#AFAFAF;}
	.st5{fill:#FFCBC3;}
	.st6{fill:#F0C020;}
	.st7{fill:#F8E5B0;}
	.st8{fill:#EFEFEF;}
	.st9{fill:#EEC21E;}
	.st10{fill:#FFFFFF;}
	.st11{fill:#F1BF21;}
	.st12{fill:#E8A61E;}
	.st13{fill:#7D7B79;}
	.st14{fill:#B34F33;}
	.st15{fill:#F8E5B2;}
	.st16{fill:#C5E5FE;}
	.st17{fill:#4C4944;}
	.st18{fill:#4BA5C8;}
	.st19{fill:#AFAEAF;}
	.st20{fill:#CF941C;}
	.st21{fill:#7C7B7A;}
	.st22{fill:#FAE0E1;}
	.st23{fill:#13BF6D;}
	.st24{fill:#76FFBB;}
	.st25{fill:#F2E1D7;}
	.st26{fill:#878787;}
	.st27{fill:#F9E5AF;}
	.st28{fill:#E8A61F;}
	.st29{fill:none;stroke:#000000;stroke-width:5;stroke-linecap:round;stroke-linejoin:round;stroke-miterlimit:10;}
	.st30{fill:#EFEFF0;}
	.st31{fill:#E8A61B;}
	.st32{fill:#EFEFEE;}
	.st33{fill:#4C4945;}
	.st34{fill:#EA8F7D;}
	.st35{fill:#D6C0B3;}
	.st36{fill:#EEC120;}
</style>
<g>
</g>
<g>
	<path class="st6" d="M217.41,10.06c-9.055,0.285-15.858,8.138-15.171,16.836c0,0.002,0,0.004,0,0.006l-5.686,2.958l-38.51,20.04
		h-0.01l-6.48,3.38c-0.001,0-0.002,0-0.003-0.001c-7.39-2.71-15.7,1.68-17.58,9.5l-9.07,37.5l-1.69,7H88.67c-5.52,0-10,4.48-10,10
		v28.53h12.54c6.61,0,8.35-0.14,11.72,0.6h0.01c3.83,0.88,7.15,2.48,9.87,4.57c5.18,3.54,10.06,11.17,10.17,20.1v13.64h52.79
		c0-26.98-8.98-50.46-23.28-68.19l1.47-9.07l4.19-25.97l6.733-4.089l35.24-21.4l5.583-3.396
		c1.993,14.583,5.135,37.561,10.093,73.851l17.32-18.43l0.68-82.09C233.799,17.032,226.282,9.781,217.41,10.06z"/>
	<g>
		<path class="st7" d="M135.85,97.555c-1.342-0.325-2.166-1.676-1.841-3.018l0.17-0.702c0.325-1.341,1.671-2.166,3.019-1.841
			c1.342,0.325,2.166,1.676,1.841,3.018l-0.17,0.702C138.544,97.053,137.197,97.881,135.85,97.555z M138.371,87.135
			c-1.342-0.325-2.167-1.676-1.842-3.018l1.41-5.832c0.324-1.341,1.669-2.163,3.018-1.843c1.342,0.325,2.167,1.676,1.842,3.018
			l-1.41,5.832C141.068,86.618,139.733,87.46,138.371,87.135z"/>
		<path class="st7" d="M167.611,56.194c-0.638-1.225-0.161-2.734,1.063-3.372l2.109-1.098c1.226-0.637,2.735-0.162,3.372,1.064
			c0.638,1.225,0.161,2.734-1.063,3.372l-2.109,1.098C169.756,57.896,168.247,57.418,167.611,56.194z M178.592,50.48
			c-0.638-1.225-0.161-2.734,1.063-3.372l11.532-6c1.226-0.637,2.735-0.162,3.372,1.064c0.638,1.225,0.161,2.734-1.063,3.372
			l-11.532,6C180.737,52.182,179.228,51.704,178.592,50.48z"/>
		<path class="st19" d="M47.543,145.811h43.67c6.61,0,8.35-0.14,11.72,0.6h0.01c3.823,0.877,7.148,2.475,9.87,4.57
			c5.18,3.54,10.06,11.17,10.17,20.1v13.64c-11.646,0-91.05,0-102.43,0v-33.91c0-2.761,2.239-5,5-5H47.543z"/>
		<path class="st8" d="M112.449,178.751h-1.72c-1.381,0-2.5-1.119-2.5-2.5s1.119-2.5,2.5-2.5h1.72c1.381,0,2.5,1.119,2.5,2.5
			S113.83,178.751,112.449,178.751z M100.729,178.751h-71.5c-1.381,0-2.5-1.119-2.5-2.5v-21.5c0-1.381,1.119-2.5,2.5-2.5
			s2.5,1.119,2.5,2.5v19h69c1.381,0,2.5,1.119,2.5,2.5S102.11,178.751,100.729,178.751z"/>
		<path class="st12" d="M123.213,107.281h14.47c4.21,0,8.25,1.75,11.08,4.87c1.28,1.42,2.53,2.88,3.73,4.38l1.47-9.07l-0.01-0.01
			c-4.13-4.56-10.05-7.17-16.26-7.17h-12.79L123.213,107.281z"/>
		<path class="st1" d="M5.713,192.151c0,4.1,3.33,7.43,7.43,7.43h169.52c4.1,0,7.43-3.33,7.43-7.43c0-4.097-3.315-7.43-7.43-7.43
			H13.143C9.043,184.721,5.713,188.041,5.713,192.151z"/>
		<polygon class="st17" points="58.179,213.717 140.133,213.717 146.984,199.582 51.328,199.582 		"/>
		<path class="st19" d="M161.641,245.949H36.67c-8.901,0-16.116-7.215-16.116-16.116c0-8.901,7.215-16.116,16.116-16.116h124.971
			c8.901,0,16.116,7.215,16.116,16.116C177.757,238.734,170.542,245.949,161.641,245.949z"/>
		<path class="st1" d="M139.083,120.921h-25.713v19.225h39.242C148.959,133.144,144.418,126.669,139.083,120.921z"/>
		<path class="st1" d="M112.813,150.981c5.18,3.54,10.06,11.17,10.17,20.1h39.39c-1.08-6.92-3.02-13.66-5.78-20.1H112.813z"/>
		<path class="st1" d="M91.213,120.921v24.89c6.631,0,8.356-0.137,11.72,0.6v-25.49H91.213z"/>
		<path class="st6" d="M60.207,130.69h6.717c1.657,0,3,1.343,3,3v12.119H57.207V133.69C57.207,132.033,58.55,130.69,60.207,130.69z"
			/>
		<path class="st6" d="M32.23,130.69h12.312c1.657,0,3,1.343,3,3v12.119H29.23V133.69C29.23,132.033,30.573,130.69,32.23,130.69z"/>
		<circle class="st8" cx="118.66" cy="229.833" r="6.211"/>
		<circle class="st8" cx="79.651" cy="229.833" r="6.211"/>
		<circle class="st8" cx="157.669" cy="229.833" r="6.211"/>
		<circle class="st8" cx="40.642" cy="229.833" r="6.211"/>
		<path class="st6" d="M160.313,68.081l-2.16,13.41l6.73-4.09l1.35-8.37c1.23-7.57-2.11-14.97-8.19-19.13l-6.49,3.38
			C157.573,55.411,161.363,61.591,160.313,68.081z"/>
		<path class="st20" d="M160.313,68.081l-2.16,13.41l6.73-4.09l1.35-8.37c1.23-7.57-2.11-14.97-8.19-19.13h-0.01l-6.48,3.38
			C157.573,55.411,161.363,61.591,160.313,68.081z"/>
		<path class="st20" d="M196.553,29.861c0.043,0.333,3.524,25.807,3.57,26.14l5.59-3.4c-3.65-26.73-3.43-24.95-3.47-25.7
			L196.553,29.861z"/>
		<path class="st7" d="M219.407,104.846l-0.09-0.655c-0.188-1.368,0.769-2.629,2.137-2.816c1.37-0.193,2.628,0.769,2.816,2.136
			l0.09,0.654c0.188,1.368-0.769,2.629-2.137,2.817C220.869,107.172,219.596,106.224,219.407,104.846z M217.965,94.282
			l-7.173-52.512c-0.188-1.368,0.771-2.628,2.139-2.815c1.367-0.19,2.628,0.771,2.814,2.139l7.173,52.512
			c0.188,1.368-0.771,2.628-2.139,2.815C219.412,96.607,218.151,95.649,217.965,94.282z"/>
		<path class="st19" d="M191.129,152.717l34.88,14.04c3.79,1.53,8.13,0.57,10.93-2.41l10.64-11.33c2.8-2.98,3.49-7.37,1.73-11.06
			c-2.605-5.458-14.529-30.448-16.19-33.93l-17.32,18.43L191.129,152.717z"/>
		<path class="st8" d="M228.061,161.654l-24.022-9.669c-1.281-0.516-1.901-1.972-1.386-3.253c0.516-1.28,1.972-1.902,3.253-1.386
			l23.652,9.521l3.017-3.211c0.946-1.008,2.528-1.056,3.534-0.111c1.006,0.945,1.056,2.527,0.11,3.534l-3.289,3.501
			C231.713,161.875,229.793,162.353,228.061,161.654z M239.531,149.9c-1.006-0.945-1.056-2.527-0.11-3.534l0.505-0.538
			c0.945-1.008,2.525-1.056,3.534-0.111c1.006,0.945,1.056,2.527,0.11,3.534l-0.505,0.538
			C242.12,150.795,240.54,150.846,239.531,149.9z"/>
		<circle class="st19" cx="146.695" cy="67.315" r="4.39"/>
		<circle class="st19" cx="218.024" cy="26.897" r="4.9"/>
		<polygon class="st17" points="58.186,213.716 140.139,213.716 146.991,199.581 51.335,199.581 		"/>
		<path d="M59.875,168.794c1.381,0,2.5-1.119,2.5-2.5v-8.398c0-1.381-1.119-2.5-2.5-2.5s-2.5,1.119-2.5,2.5v8.398
			C57.375,167.675,58.494,168.794,59.875,168.794z"/>
		<path d="M69.386,168.794c1.381,0,2.5-1.119,2.5-2.5v-8.398c0-1.381-1.119-2.5-2.5-2.5s-2.5,1.119-2.5,2.5v8.398
			C66.886,167.675,68.005,168.794,69.386,168.794z"/>
		<path d="M78.896,168.794c1.381,0,2.5-1.119,2.5-2.5v-8.398c0-1.381-1.119-2.5-2.5-2.5s-2.5,1.119-2.5,2.5v8.398
			C76.396,167.675,77.516,168.794,78.896,168.794z"/>
		<circle cx="133.439" cy="140.14" r="2.5"/>
		<path d="M113.38,142.64h10.06c1.38,0,2.5-1.12,2.5-2.5c0-1.37-1.12-2.5-2.5-2.5h-7.56v-14.22h22.11
			c3.909,4.33,7.409,9.11,10.39,14.22h-4.94c-1.38,0-2.5,1.13-2.5,2.5c0,1.38,1.12,2.51,2.5,2.51c0,0,0.011,0,0.011-0.01h9.17
			c1.851,0,3.101-1.955,2.21-3.65c-3.771-7.24-8.45-13.89-13.91-19.77c-0.47-0.51-1.14-0.8-1.83-0.8h-25.71
			c-1.364,0-2.5,1.107-2.5,2.5v19.22C110.88,141.521,111.991,142.64,113.38,142.64z"/>
		<path d="M163.97,199.58c0,1.38,1.13,2.5,2.51,2.5c1.37,0,2.49-1.12,2.49-2.5c0-1.38-1.12-2.5-2.49-2.5
			C165.1,197.08,163.97,198.2,163.97,199.58z"/>
		<path d="M13.149,202.08h36.618l4.428,9.136H36.677c-10.265,0-18.615,8.351-18.615,18.616c0,10.265,8.351,18.616,18.615,18.616
			h124.972c10.265,0,18.615-8.351,18.615-18.616c0-10.265-8.351-18.616-18.615-18.616H144.13l4.428-9.136h7.922
			c1.37,0,2.49-1.12,2.49-2.5c0-1.38-1.12-2.5-2.49-2.5H13.149c-2.71,0-4.93-2.22-4.93-4.93s2.22-4.93,4.93-4.93
			c5.646,0,152.685,0,162.63,0h6.891c2.72,0,4.93,2.22,4.93,4.93s-2.22,4.93-4.93,4.93h-6.2c-1.37,0-2.49,1.12-2.49,2.5
			c0,1.38,1.12,2.5,2.49,2.5c0.01,0,0.01,0,0.021,0h6.18c5.47,0,9.93-4.46,9.93-9.93c-0.01-5.48-4.47-9.93-9.93-9.93h-4.44
			c-0.5-24.921-8.449-47.792-23.09-66.359l5.299-32.831l43.317-26.313l9.412,68.899l-8.527,9.075l-3.855-3.855
			c-0.977-0.977-2.559-0.976-3.535,0c-0.977,0.977-0.977,2.56,0,3.536l3.965,3.965l-3.356,3.571l-3.886-3.886
			c-0.977-0.977-2.559-0.977-3.535,0c-0.977,0.976-0.977,2.559,0,3.535l3.996,3.996l-3.356,3.571l-3.917-3.916
			c-0.977-0.976-2.559-0.976-3.535,0c-0.977,0.976-0.977,2.559,0,3.536l5.74,5.74c0.195,0.195,0.531,0.429,0.833,0.551
			c0,0,0.001,0,0.001,0.001l34.878,14.039c4.775,1.928,10.151,0.747,13.688-3.017l10.641-11.329
			c3.533-3.762,4.383-9.198,2.163-13.849l-15.941-33.411l0.675-81.533c0-10.381-8.754-18.728-18.967-18.375
			c-9.964,0.313-17.465,8.451-17.63,17.842L185.13,32.99c-1.23,0.64-1.7,2.15-1.07,3.37c0.608,1.173,2.072,1.726,3.38,1.07
			l12.774-6.651c0.079,0.584,2.71,19.842,2.805,20.537l-41.532,25.228l1.302-8.065c0.953-5.894-1.467-11.643-5.962-15.128
			c0,0,11.788-6.132,12.863-6.692c1.23-0.64,1.7-2.15,1.07-3.37c-0.647-1.219-2.128-1.707-3.37-1.07
			c-0.404,0.211-15.677,8.147-16.069,8.375c-8.693-2.473-17.672,2.875-19.77,11.597l-10.297,42.588H88.68
			c-6.893,0-12.5,5.607-12.5,12.5v26.026l-3.749,0v-9.617c0-3.033-2.468-5.5-5.5-5.5h-6.717c-3.032,0-5.5,2.467-5.5,5.5v9.618
			l-4.665,0v-9.619c0-3.033-2.468-5.5-5.5-5.5H32.236c-3.032,0-5.5,2.467-5.5,5.5v9.62l-1.177,0c-4.136,0-7.5,3.364-7.5,7.5v31.41
			h-4.91c-5.47,0-9.93,4.45-9.93,9.93C3.22,197.62,7.68,202.08,13.149,202.08z M161.648,216.216c7.508,0,13.615,6.108,13.615,13.616
			s-6.107,13.616-13.615,13.616H36.677c-7.508,0-13.615-6.108-13.615-13.616s6.107-13.616,13.615-13.616
			C43.666,216.216,154.717,216.216,161.648,216.216z M143.001,202.081l-4.428,9.136H59.752l-4.428-9.136H143.001z M247.06,143.033
			c1.324,2.777,0.816,6.023-1.296,8.272l-10.641,11.329c-2.11,2.247-5.319,2.956-8.174,1.803l-31.487-12.674
			c2.676-2.848,29.933-31.858,36.982-39.36L247.06,143.033z M217.918,12.552c7.287,0,13.388,6.036,13.388,13.364l-0.672,81.111
			l-13.061,13.898c-0.057-0.417-12.804-93.63-12.824-94.05l-0.008-0.129c0-0.009-0.001-0.018-0.002-0.027
			c-0.001-0.009-0.001-0.018-0.001-0.027C204.167,19.384,209.985,12.552,217.918,12.552z M120.489,182.22H93.72v-33.915
			c2.733-0.007,4.552-0.028,6.172,0.135c11.175,1.132,20.45,10.551,20.597,22.671V182.22z M93.72,143.304V123.42h6.72v20.049
			C98.398,143.257,95.837,143.304,93.72,143.304z M119.089,153.48h35.844c1.977,4.881,3.476,9.942,4.473,15.1h-34.058
			C124.767,162.909,122.37,157.52,119.089,153.48z M136.41,63.364c1.52-6.321,8.257-9.95,14.315-7.728
			c4.974,1.759,7.971,6.825,7.127,12.046l-6.953,43.097c-3.627-4.028-8.339-6-13.202-6h-11.302L136.41,63.364z M81.18,117.28
			c0-4.136,3.364-7.5,7.5-7.5c11.389,0,39.993,0,49.01,0c3.297,0,6.436,1.3,8.736,3.562c1.028,1.012,3.551,3.988,4.128,4.757
			c14.373,17.832,22.195,39.957,22.699,64.121h-47.764v-8.64h36.891c1.532,0,2.708-1.37,2.47-2.886
			c-1.108-7.106-3.111-14.07-5.952-20.699c-0.394-0.919-1.298-1.515-2.298-1.515h-42.97c-2.443-1.753-5.187-3.09-8.19-3.989V120.92
			c0-1.381-1.119-2.5-2.5-2.5H91.22c-1.381,0-2.5,1.119-2.5,2.5v22.385l-7.54,0.001V117.28z M59.714,133.689
			c0-0.276,0.225-0.5,0.5-0.5h6.717c0.275,0,0.5,0.224,0.5,0.5v9.617l-7.717,0.001V133.689z M50.05,148.31h38.67v33.91
			c-22.298,0-35,0-38.67,0V148.31z M31.736,133.689c0-0.276,0.225-0.5,0.5-0.5h12.313c0.275,0,0.5,0.224,0.5,0.5v9.619
			c-3.37,0-10.417,0-13.313,0V133.689z M23.06,150.81c0-1.378,1.121-2.5,2.5-2.5h19.49v33.91c-0.481,0-9.308,0-21.99,0V150.81z"/>
		<path d="M118.667,221.121c-4.804,0-8.711,3.908-8.711,8.711c0,4.804,3.907,8.711,8.711,8.711s8.711-3.908,8.711-8.711
			C127.378,225.029,123.471,221.121,118.667,221.121z M118.667,233.543c-2.046,0-3.711-1.665-3.711-3.711s1.665-3.711,3.711-3.711
			s3.711,1.665,3.711,3.711S120.713,233.543,118.667,233.543z"/>
		<path d="M79.658,221.121c-4.804,0-8.711,3.908-8.711,8.711c0,4.804,3.907,8.711,8.711,8.711s8.711-3.908,8.711-8.711
			C88.369,225.029,84.462,221.121,79.658,221.121z M79.658,233.543c-2.046,0-3.711-1.665-3.711-3.711s1.665-3.711,3.711-3.711
			s3.711,1.665,3.711,3.711S81.704,233.543,79.658,233.543z"/>
		<path d="M157.676,238.543c4.804,0,8.712-3.908,8.712-8.711c0-4.803-3.908-8.711-8.712-8.711s-8.711,3.908-8.711,8.711
			C148.965,234.636,152.872,238.543,157.676,238.543z M157.676,226.121c2.047,0,3.712,1.665,3.712,3.711s-1.665,3.711-3.712,3.711
			c-2.046,0-3.711-1.665-3.711-3.711S155.63,226.121,157.676,226.121z"/>
		<path d="M40.649,221.121c-4.804,0-8.712,3.908-8.712,8.711c0,4.804,3.908,8.711,8.712,8.711s8.711-3.908,8.711-8.711
			C49.36,225.029,45.453,221.121,40.649,221.121z M40.649,233.543c-2.047,0-3.712-1.665-3.712-3.711s1.665-3.711,3.712-3.711
			c2.046,0,3.711,1.665,3.711,3.711S42.695,233.543,40.649,233.543z"/>
		<path d="M146.702,74.204c3.799,0,6.89-3.091,6.89-6.89c0-3.799-3.091-6.89-6.89-6.89c-3.8,0-6.891,3.091-6.891,6.89
			C139.812,71.113,142.902,74.204,146.702,74.204z M146.702,65.424c1.042,0,1.89,0.848,1.89,1.89s-0.848,1.89-1.89,1.89
			c-1.043,0-1.891-0.848-1.891-1.89S145.659,65.424,146.702,65.424z"/>
		<path d="M218.03,34.296c4.081,0,7.4-3.32,7.4-7.4c0-4.081-3.319-7.4-7.4-7.4c-4.08,0-7.399,3.32-7.399,7.4
			C210.631,30.976,213.95,34.296,218.03,34.296z M218.03,24.496c1.323,0,2.4,1.077,2.4,2.4c0,1.323-1.077,2.4-2.4,2.4
			s-2.399-1.077-2.399-2.4C215.631,25.572,216.707,24.496,218.03,24.496z"/>
		<path d="M176.26,37.61c-1.229,0.63-1.7,2.15-1.07,3.37c0.667,1.257,2.201,1.678,3.37,1.06c1.23-0.64,1.7-2.15,1.07-3.37
			C178.986,37.427,177.445,36.966,176.26,37.61z"/>
	</g>
</g>
</svg>
